<svg xmlns="http://www.w3.org/2000/svg" version="1.1" xmlns:xlink="http://www.w3.org/1999/xlink" viewBox="0 0 200 200"><rect width="200" height="200" fill="url('#gradient')"></rect><defs><linearGradient id="gradient" gradientTransform="rotate(74 0.5 0.5)"><stop offset="0%" stop-color="#25b7ff"></stop><stop offset="100%" stop-color="#fdc189"></stop></linearGradient></defs><g><g fill="#ffffff" transform="matrix(5.691438816674137,0,0,5.691438816674137,33.325924961148004,140.47038618837541)" stroke="#ffffff" stroke-width="0"><path d="M10.46-10.42L10.46-10.42Q10.46-9.38 9.95-8.59Q9.43-7.80 8.54-7.32L8.54-7.32Q9.55-6.83 10.15-5.96Q10.74-5.10 10.74-3.92L10.74-3.92Q10.74-2.01 9.43-0.91Q8.12 0.20 5.81 0.20L5.81 0.20Q3.50 0.20 2.16-0.91Q0.82-2.02 0.82-3.92L0.82-3.92Q0.82-5.06 1.41-5.94Q1.99-6.82 3.07-7.32L3.07-7.32Q2.16-7.80 1.64-8.59Q1.12-9.38 1.12-10.42L1.12-10.42Q1.12-12.28 2.38-13.35Q3.64-14.42 5.78-14.42L5.78-14.42Q7.94-14.42 9.20-13.35Q10.46-12.28 10.46-10.42ZM7.44-4.18L7.44-4.18Q7.44-5.06 6.99-5.53Q6.53-6.01 5.79-6.01Q5.05-6.01 4.59-5.53Q4.13-5.06 4.13-4.18L4.13-4.18Q4.13-3.33 4.59-2.84Q5.06-2.34 5.81-2.34L5.81-2.34Q6.54-2.34 6.99-2.83Q7.44-3.32 7.44-4.18ZM5.78-11.88L5.78-11.88Q5.12-11.88 4.77-11.45Q4.42-11.02 4.42-10.24L4.42-10.24Q4.42-9.48 4.78-9.01Q5.13-8.54 5.81-8.54L5.81-8.54Q6.48-8.54 6.82-9.01Q7.16-9.48 7.16-10.24Q7.16-11.01 6.81-11.45Q6.46-11.88 5.78-11.88ZM19.90-14.42L20.40-14.42L20.40-11.84L20.25-11.84Q18.41-11.84 17.22-10.95Q16.04-10.07 15.76-8.50L15.76-8.50Q16.88-9.59 18.57-9.59L18.57-9.59Q20.42-9.59 21.51-8.24Q22.61-6.89 22.61-4.71L22.61-4.71Q22.61-3.35 21.97-2.22Q21.33-1.08 20.18-0.44Q19.03 0.20 17.64 0.20L17.64 0.20Q16.12 0.20 14.93-0.49Q13.74-1.18 13.08-2.46Q12.41-3.74 12.39-5.41L12.39-5.41L12.39-6.73Q12.39-8.93 13.33-10.68Q14.28-12.43 16.03-13.43Q17.77-14.42 19.90-14.42L19.90-14.42ZM17.43-7.07L17.43-7.07Q16.78-7.07 16.34-6.77Q15.90-6.46 15.68-6.03L15.68-6.03L15.68-5.04Q15.68-2.34 17.55-2.34L17.55-2.34Q18.30-2.34 18.80-3.02Q19.31-3.69 19.31-4.71L19.31-4.71Q19.31-5.75 18.79-6.41Q18.28-7.07 17.43-7.07Z"></path></g></g></svg>